<svg xmlns="http://www.w3.org/2000/svg" viewBox="0 0 400 160" font-family="DM Sans, sans-serif">
  <rect width="400" height="160" fill="#FAFAF9" rx="10"/>
  <text x="200" y="20" text-anchor="middle" font-size="11" font-weight="700" fill="#1C1917" font-family="Space Grotesk, sans-serif">Least Connections — Route to Least Busy</text>
  <!-- New req -->
  <rect x="10" y="60" width="60" height="28" fill="#FEF3C7" rx="5" stroke="#F59E0B"/><text x="40" y="78" text-anchor="middle" font-size="8" fill="#92400E">New Req</text>
  <!-- LB -->
  <rect x="110" y="52" width="80" height="38" fill="#3B82F6" rx="7"/><text x="150" y="73" text-anchor="middle" font-size="9" font-weight="600" fill="white">Least Conns</text>
  <line x1="72" y1="74" x2="108" y2="71" stroke="#78716C" stroke-width="1"/>
  <!-- Servers -->
  <rect x="250" y="25" width="85" height="28" fill="#FEE2E2" rx="5" stroke="#F87171"/><text x="292" y="38" text-anchor="middle" font-size="8" fill="#DC2626">S1: 12 conns</text><text x="292" y="49" text-anchor="middle" font-size="7" fill="#7F1D1D">busy</text>
  <rect x="250" y="62" width="85" height="28" fill="#D1FAE5" rx="5" stroke="#34D399" stroke-width="2"/><text x="292" y="75" text-anchor="middle" font-size="8" fill="#059669" font-weight="700">S2: 3 conns ✓</text><text x="292" y="86" text-anchor="middle" font-size="7" fill="#065F46">least busy!</text>
  <rect x="250" y="99" width="85" height="28" fill="#FEF3C7" rx="5" stroke="#F59E0B"/><text x="292" y="112" text-anchor="middle" font-size="8" fill="#92400E">S3: 8 conns</text><text x="292" y="123" text-anchor="middle" font-size="7" fill="#78350F">moderate</text>
  <!-- Arrow to S2 -->
  <line x1="192" y1="71" x2="248" y2="75" stroke="#10B981" stroke-width="2" marker-end="url(#a2)"/>
  <line x1="192" y1="65" x2="248" y2="40" stroke="#E5E7EB" stroke-width="0.8" stroke-dasharray="3,2"/>
  <line x1="192" y1="78" x2="248" y2="112" stroke="#E5E7EB" stroke-width="0.8" stroke-dasharray="3,2"/>
  <text x="200" y="150" text-anchor="middle" font-size="8" fill="#065F46">✓ Best for variable-duration requests</text>
  <defs><marker id="a2" markerWidth="5" markerHeight="4" refX="5" refY="2" orient="auto"><polygon points="0 0,5 2,0 4" fill="#10B981"/></marker></defs>
</svg>